<svg width="100" height="82" viewBox="0 0 100 82" fill="none" xmlns="http://www.w3.org/2000/svg">
    <g filter="url(#filter0_d_12501_14855)">
        <path
            d="M12.7062 30.7965C11.7839 24.2336 16.3564 18.1656 22.9193 17.2433L37.7734 15.1557L52.6274 13.0681C59.1903 12.1457 65.2583 16.7183 66.1807 23.2812L67.2941 31.2033C68.2164 37.7663 63.6439 43.8343 57.0809 44.7566L42.2269 46.8442L27.3729 48.9318C20.81 49.8542 14.742 45.2816 13.8196 38.7187L12.7062 30.7965Z"
            fill="#26D176" />
        <path
            d="M13.2013 30.727C12.3174 24.4375 16.6995 18.6223 22.9889 17.7384L37.843 15.6508L52.697 13.5632C58.9864 12.6793 64.8016 17.0613 65.6856 23.3508L66.7989 31.2729C67.6829 37.5624 63.3008 43.3776 57.0113 44.2615L42.1573 46.3491L27.3033 48.4367C21.0138 49.3206 15.1987 44.9386 14.3147 38.6491L13.2013 30.727Z"
            stroke="white" stroke-opacity="0.36" />
    </g>
    <path
        d="M39.2253 24.5126C39.6764 24.1281 39.9019 23.9359 40.1377 23.8232C40.6832 23.5625 41.3172 23.5625 41.8627 23.8232C42.0985 23.9359 42.3241 24.1281 42.7752 24.5126C42.9547 24.6656 43.0445 24.7421 43.1403 24.8063C43.3601 24.9536 43.6069 25.0559 43.8665 25.1071C43.9797 25.1295 44.0973 25.1388 44.3324 25.1576C44.9232 25.2047 45.2186 25.2283 45.4651 25.3154C46.0351 25.5167 46.4835 25.9651 46.6848 26.5351C46.7718 26.7815 46.7954 27.0769 46.8426 27.6678C46.8613 27.9029 46.8707 28.0205 46.8931 28.1337C46.9443 28.3933 47.0465 28.6401 47.1938 28.8598C47.2581 28.9557 47.3346 29.0455 47.4876 29.225C47.872 29.6761 48.0642 29.9017 48.177 30.1375C48.4377 30.6829 48.4377 31.317 48.177 31.8624C48.0642 32.0983 47.872 32.3238 47.4876 32.7749C47.3346 32.9544 47.2581 33.0442 47.1938 33.1401C47.0465 33.3599 46.9443 33.6067 46.8931 33.8662C46.8707 33.9795 46.8613 34.097 46.8426 34.3322C46.7954 34.923 46.7718 35.2184 46.6848 35.4648C46.4835 36.0348 46.0351 36.4832 45.4651 36.6846C45.2186 36.7716 44.9232 36.7952 44.3324 36.8423C44.0973 36.8611 43.9797 36.8705 43.8665 36.8928C43.6069 36.9441 43.3601 37.0463 43.1403 37.1936C43.0445 37.2579 42.9547 37.3344 42.7752 37.4874C42.3241 37.8718 42.0985 38.064 41.8627 38.1767C41.3172 38.4374 40.6832 38.4374 40.1377 38.1767C39.9019 38.064 39.6764 37.8718 39.2253 37.4874C39.0457 37.3344 38.956 37.2579 38.8601 37.1936C38.6403 37.0463 38.3935 36.9441 38.1339 36.8928C38.0207 36.8705 37.9031 36.8611 37.668 36.8423C37.0772 36.7952 36.7818 36.7716 36.5353 36.6846C35.9653 36.4832 35.517 36.0348 35.3156 35.4648C35.2286 35.2184 35.205 34.923 35.1578 34.3322C35.1391 34.097 35.1297 33.9795 35.1073 33.8662C35.0561 33.6067 34.9539 33.3599 34.8066 33.1401C34.7423 33.0442 34.6658 32.9544 34.5128 32.7749C34.1284 32.3238 33.9362 32.0983 33.8235 31.8624C33.5628 31.317 33.5628 30.6829 33.8235 30.1375C33.9362 29.9017 34.1284 29.6761 34.5128 29.225C34.6658 29.0455 34.7423 28.9557 34.8066 28.8598C34.9539 28.6401 35.0561 28.3933 35.1073 28.1337C35.1297 28.0205 35.1391 27.9029 35.1578 27.6678C35.205 27.0769 35.2286 26.7815 35.3156 26.5351C35.517 25.9651 35.9653 25.5167 36.5353 25.3154C36.7818 25.2283 37.0772 25.2047 37.668 25.1576C37.9031 25.1388 38.0207 25.1295 38.1339 25.1071C38.3935 25.0559 38.6403 24.9536 38.8601 24.8063C38.956 24.7421 39.0457 24.6656 39.2253 24.5126Z"
        stroke="white" stroke-width="1.5" />
    <path d="M38.6001 33.4001L43.4001 28.6001" stroke="white" stroke-width="1.5"
        stroke-linecap="round" />
    <path
        d="M43.8002 33C43.8002 33.4418 43.442 33.8 43.0002 33.8C42.5584 33.8 42.2002 33.4418 42.2002 33C42.2002 32.5581 42.5584 32.2 43.0002 32.2C43.442 32.2 43.8002 32.5581 43.8002 33Z"
        fill="white" />
    <path
        d="M39.8002 29C39.8002 29.4418 39.442 29.8 39.0002 29.8C38.5584 29.8 38.2002 29.4418 38.2002 29C38.2002 28.5581 38.5584 28.2 39.0002 28.2C39.442 28.2 39.8002 28.5581 39.8002 29Z"
        fill="white" />
    <defs>
        <filter id="filter0_d_12501_14855" x="-19.4121" y="-19.0503" width="118.824" height="100.1"
            filterUnits="userSpaceOnUse" color-interpolation-filters="sRGB">
            <feFlood flood-opacity="0" result="BackgroundImageFix" />
            <feColorMatrix in="SourceAlpha" type="matrix"
                values="0 0 0 0 0 0 0 0 0 0 0 0 0 0 0 0 0 0 127 0" result="hardAlpha" />
            <feOffset />
            <feGaussianBlur stdDeviation="16" />
            <feComposite in2="hardAlpha" operator="out" />
            <feColorMatrix type="matrix"
                values="0 0 0 0 0.1476 0 0 0 0 0.82 0 0 0 0 0.461387 0 0 0 0.3 0" />
            <feBlend mode="normal" in2="BackgroundImageFix" result="effect1_dropShadow_12501_14855" />
            <feBlend mode="normal" in="SourceGraphic" in2="effect1_dropShadow_12501_14855"
                result="shape" />
        </filter>
    </defs>
</svg>
    