<svg width="20" height="20" viewBox="0 0 20 20" fill="none" xmlns="http://www.w3.org/2000/svg">
<path d="M3.33203 8.09134C3.33203 11.3333 6.01165 13.0609 7.97319 14.6072C8.66536 15.1528 9.33203 15.6666 9.9987 15.6666C10.6654 15.6666 11.332 15.1528 12.0242 14.6072C13.9857 13.0609 16.6654 11.3333 16.6654 8.09134C16.6654 4.84938 12.9986 2.55025 9.9987 5.66703C6.9988 2.55025 3.33203 4.84938 3.33203 8.09134Z" fill="#F62559"/>
<path d="M7.97319 14.6072L8.4375 14.0182H8.4375L7.97319 14.6072ZM9.9987 5.66703L9.45833 6.18713C9.59972 6.33402 9.79481 6.41703 9.9987 6.41703C10.2026 6.41703 10.3977 6.33402 10.5391 6.18713L9.9987 5.66703ZM12.0242 14.6072L11.5599 14.0182L12.0242 14.6072ZM8.4375 14.0182C7.41223 13.21 6.33505 12.4524 5.47782 11.4871C4.6463 10.5508 4.08203 9.47825 4.08203 8.09134H2.58203C2.58203 9.94638 3.35758 11.3586 4.35625 12.4831C5.32921 13.5787 6.57261 14.4581 7.50887 15.1962L8.4375 14.0182ZM4.08203 8.09134C4.08203 6.75096 4.83905 5.63989 5.8522 5.17677C6.81807 4.73527 8.15033 4.82816 9.45833 6.18713L10.5391 5.14693C8.84717 3.38911 6.8461 3.07318 5.22861 3.81254C3.6584 4.53029 2.58203 6.18976 2.58203 8.09134H4.08203ZM7.50887 15.1962C7.84806 15.4636 8.2281 15.7617 8.61711 15.9891C9.00589 16.2162 9.47497 16.4166 9.9987 16.4166V14.9166C9.85576 14.9166 9.65817 14.8601 9.3739 14.694C9.08987 14.528 8.79049 14.2965 8.4375 14.0182L7.50887 15.1962ZM12.4885 15.1962C13.4248 14.4581 14.6682 13.5787 15.6411 12.4831C16.6398 11.3586 17.4154 9.94638 17.4154 8.09134H15.9154C15.9154 9.47825 15.3511 10.5508 14.5196 11.4871C13.6623 12.4524 12.5852 13.21 11.5599 14.0182L12.4885 15.1962ZM17.4154 8.09134C17.4154 6.18976 16.339 4.53029 14.7688 3.81254C13.1513 3.07318 11.1502 3.38911 9.45833 5.14693L10.5391 6.18713C11.8471 4.82816 13.1793 4.73527 14.1452 5.17677C15.1583 5.63989 15.9154 6.75096 15.9154 8.09134H17.4154ZM11.5599 14.0182C11.2069 14.2965 10.9075 14.528 10.6235 14.694C10.3392 14.8601 10.1416 14.9166 9.9987 14.9166V16.4166C10.5224 16.4166 10.9915 16.2162 11.3803 15.9891C11.7693 15.7617 12.1493 15.4636 12.4885 15.1962L11.5599 14.0182Z" fill="#F62559"/>
</svg>
