<svg width="453" height="267" fill="none" xmlns="http://www.w3.org/2000/svg">
    <path
        d="M113.5 213.618H99.155V244H59.928v-30.382H.5v-35.056L54.365 36H92.13L40.9 178.562h19.029v-25.124h39.227v25.124H113.5v35.056z"
        fill="#383838" />
    <path
        d="M253.54 43.544c12.712-9.773 27.334-17.77 43.335-20.292 10.95-1.473 22.397-.33 32.587 4.055 9.423 4.07 17.319 11.939 20.628 21.745 3.659 10.788 2.973 23.204-2.542 33.246-4.614 8.333-12.672 14.407-21.611 17.454-12.88 4.378-27.138 4.297-40.086.228-13.767-4.338-26.432-11.864-37.295-21.307-2.71-2.233-4.735-5.152-7.405-7.419-.968.814-2.603 1.345-2.556 2.859-.161 3.558.128 7.13.095 10.694.08 1.07-.121 2.273.517 3.228 2.381.437 4.823-.067 7.211.323 1.775.296 3.168 1.977 3.181 3.773.175 4.083-.02 8.179.094 12.268 9.181 3.141 18.14 7.224 25.854 13.21 16.055 12.012 27.395 30.179 30.98 49.926 1.634 9.275 2.058 18.933-.135 28.154-1.554 8.031-4.264 15.846-7.903 23.157-4.412 8.495-10.183 16.788-18.55 21.779-3.766 2.273-8.145 3.443-12.543 3.43-26.937.027-53.875 0-80.812.013a21.957 21.957 0 01-12.039-3.275c-7.028-4.284-12.221-10.943-16.472-17.864-2.993-5.455-5.898-10.99-7.808-16.929-6.114-15.288-5.798-32.567-.834-48.117 7.956-25.625 29.493-46.549 55.428-53.538 1.439-.484 3.147-.652 4.244-1.809.464-3.652-.135-7.358.295-11.01.222-1.702 1.749-3.094 3.444-3.222 2.408-.215 4.836.04 7.244-.282.121-3.491.202-6.988.087-10.486-3.47-.43-7.499-.605-9.974-3.444-2.482-3.02-2.038-7.183-2.139-10.835.121-3.457-.323-7.15 1.244-10.358 1.272-2.596 4.157-3.82 6.867-4.264 8.858-1.298 18.147.807 25.465 5.986 3.779-3.894 7.553-7.802 11.904-11.077zM179.534 46.173c1.749-.538 3.565.054 5.098.922 3.014 1.681 5.986 3.437 9.006 5.112 1.668.961 3.538 1.99 4.278 3.887 1.426 3.1-.632 7.156-4.022 7.735-3.108.686-5.63-1.675-8.206-2.973-2.919-1.836-6.228-3.12-8.817-5.434-2.866-2.859-1.271-8.334 2.663-9.248z"
        fill="#F62559" />
    <path
        d="M190.246 71.12c2.825-1.494 6.605.033 7.715 2.986 1.157 2.65-.195 5.845-2.677 7.177-3.847 2.246-7.708 4.479-11.629 6.597-2.852 1.648-6.948.081-7.896-3.087-1.137-2.757.43-5.912 2.986-7.203 3.827-2.166 7.594-4.46 11.501-6.47z"
        fill="#F62559" />
    <circle cx="200" cy="160" r="11" fill="#fff" />
    <circle cx="251" cy="160" r="11" fill="#fff" />
    <path d="M193 208.5v0c19.773-14.569 46.727-14.569 66.5 0v0" stroke="#fff" stroke-width="8"
        stroke-linecap="round" />
    <path
        d="M452.5 213.618h-14.345V244h-39.228v-30.382H339.5v-35.056L393.365 36h37.765l-51.231 142.562h19.028v-25.124h39.228v25.124H452.5v35.056z"
        fill="#383838" />
</svg>