<svg width="90" height="90" fill="none" xmlns="http://www.w3.org/2000/svg"><path fill-rule="evenodd" clip-rule="evenodd" d="M80.754 31.762v-3.047a5 5 0 00-5-5H7.519A2.52 2.52 0 005 26.235v45.35a2.52 2.52 0 002.52 2.52h70.714a2.52 2.52 0 002.52-2.52V31.763z" fill="#12A78C"/><path d="M22.805 58.988h-5.04a2.518 2.518 0 00-2.519 2.52 2.518 2.518 0 002.52 2.52h5.039a2.518 2.518 0 002.52-2.52 2.518 2.518 0 00-2.52-2.52zm15.117 0h-5.04a2.518 2.518 0 00-2.519 2.52 2.518 2.518 0 002.52 2.52h5.039a2.518 2.518 0 002.52-2.52 2.518 2.518 0 00-2.52-2.52zm0-25.195H17.766a2.518 2.518 0 00-2.52 2.52v5.039a2.518 2.518 0 002.52 2.52h20.156a2.518 2.518 0 002.52-2.52v-5.04a2.518 2.518 0 00-2.52-2.519zm15.117 25.195H48a2.518 2.518 0 00-2.52 2.52 2.518 2.518 0 002.52 2.52h5.04a2.518 2.518 0 002.519-2.52 2.518 2.518 0 00-2.52-2.52zm15.117 0h-5.039a2.518 2.518 0 00-2.52 2.52 2.518 2.518 0 002.52 2.52h5.04a2.518 2.518 0 002.519-2.52 2.518 2.518 0 00-2.52-2.52z" fill="#D0EEE8"/><path fill-rule="evenodd" clip-rule="evenodd" d="M71.948 15C64.257 15 58 21.504 58 29.5S64.257 44 71.948 44C79.64 44 86 37.496 86 29.5S79.64 15 71.948 15zM70.72 34.667l7.483-7.779a1.656 1.656 0 000-2.278 1.508 1.508 0 00-2.192 0l-6.386 6.64-2.513-2.612a1.508 1.508 0 00-2.191 0 1.656 1.656 0 000 2.278l3.608 3.75c.302.316.7.473 1.096.473.396 0 .793-.157 1.095-.472z" fill="#D0EEE8"/></svg>