<svg width="90" height="90" fill="none" xmlns="http://www.w3.org/2000/svg"><path fill-rule="evenodd" clip-rule="evenodd" d="M80.754 31.762v-8.047H7.519A2.52 2.52 0 005 26.235v45.35a2.52 2.52 0 002.52 2.52h70.714a2.52 2.52 0 002.52-2.52V31.763z" fill="#EB6666"/><path d="M22.805 58.988h-5.04a2.518 2.518 0 00-2.519 2.52 2.518 2.518 0 002.52 2.52h5.039a2.518 2.518 0 002.52-2.52 2.518 2.518 0 00-2.52-2.52zm15.117 0h-5.04a2.518 2.518 0 00-2.519 2.52 2.518 2.518 0 002.52 2.52h5.039a2.518 2.518 0 002.52-2.52 2.518 2.518 0 00-2.52-2.52zm0-25.195H17.766a2.518 2.518 0 00-2.52 2.52v5.039a2.518 2.518 0 002.52 2.52h20.156a2.518 2.518 0 002.52-2.52v-5.04a2.518 2.518 0 00-2.52-2.519zm15.117 25.195H48a2.518 2.518 0 00-2.52 2.52 2.518 2.518 0 002.52 2.52h5.04a2.518 2.518 0 002.519-2.52 2.518 2.518 0 00-2.52-2.52zm15.117 0h-5.039a2.518 2.518 0 00-2.52 2.52 2.518 2.518 0 002.52 2.52h5.04a2.518 2.518 0 002.519-2.52 2.518 2.518 0 00-2.52-2.52zM71.447 16C63.48 16 57 22.504 57 30.5S63.48 45 71.447 45C79.412 45 86 38.496 86 30.5S79.413 16 71.447 16zm5.674 17.917c.627.63.627 1.65 0 2.279a1.6 1.6 0 01-2.27 0l-3.404-3.418-3.405 3.418a1.6 1.6 0 01-2.27 0 1.615 1.615 0 010-2.279l3.405-3.417-3.405-3.417a1.615 1.615 0 010-2.278 1.6 1.6 0 012.27 0l3.404 3.417 3.405-3.418a1.6 1.6 0 012.27 0c.627.63.627 1.65 0 2.279L73.716 30.5l3.405 3.417z" fill="#FBE0E0"/></svg>