<svg width="425" height="193" fill="currentColor" xmlns="http://www.w3.org/2000/svg"><path fill-rule="evenodd" clip-rule="evenodd" d="M425 97.073l-25 .12-19.972 29.669c-4.685-2.463-16.21-23.073-21.748-29.67l-24.906-.044c2.26 4.228 4.814 5.723 7.563 8.527l.405 59.478 16.909.073.332-38.67c3.634 4.349 6.659 9.319 10.004 14.14 3.136 4.519 6.596 10.823 10.043 13.663 5.693-2.147 15.028-23.342 21.072-27.577l.59 38.445 16.771-.191.456-59.093 7.481-8.87zM220.236 84.524c6.868-1.779 127.374-.701 145.166-.701 40.423 0 37.296-3.742 38.904 9.364l12.518-.244c2.788-29.766-16.604-23.23-41.245-23.227l-129.236-.006c-24.517 0-42.666-6.4-40.173 23.35l12.481.054 1.585-8.59zM247.36 192.391h129.236c22.746 0 44.225 5.898 40.128-23.221l-12.3-.154-1.534 8.683c-6.527 1.487-177.344 1.321-183.118-.032l-1.215-8.633-12.318.317c-3.426 29.549 17.482 23.04 41.121 23.04zM149.788 129.308l-.343-17.446c9.777-.362 27.446-3.396 27.628 8.412.191 12.372-16.867 8.994-27.285 9.034zm28.236 11.555c7.481-4.05 13.309-5.974 15.712-15.129 2.57-9.788-2.307-17.969-7.27-22.104-7.604-6.336-12.862-6.547-24.585-6.494-9.806.045-19.903-.286-29.723.069l.099 68.015 17.206-.519.044-21.882 10.336.24c12.174 20.909 14.896 22.837 34.434 22.003l-.009-15.766c-8.775-.583-14.267-.762-16.244-8.433z" fill="#000"/><path fill-rule="evenodd" clip-rule="evenodd" d="M263.222 97.243c-1.542 7.095-.48 29.721-.483 38.472-.005 14.388 1.534 20.997 11.292 26.591 15.023 8.614 47.536 5.646 47.569-19.384.02-15.273.515-30.589-.468-45.832l-16.602-.022-.193 42.815c-.244 17.375-19.358 10.866-21.385 9.169-3.41-2.856-2.745-8.713-2.746-13.337l-.599-38.653-16.385.181zM18.705 112.284c9.538-2.037 26.82-2.846 26.025 8.913-.671 9.924-16.302 9.467-25.875 7.697l-.15-16.61zm.184 31.545c13.2.067 23.436 1.499 33.15-4.911 6.47-4.27 13.334-14.276 8.591-26.393-7.582-19.372-35.544-16.264-59.22-15.344l.245 68.052 17.115-.35.119-21.054zM82.003 144.223c.905-4.265 1.99-6.617 3.414-10.745l2.762-7.515c1.056-1.769.617-.892 1.707-1.966l6.76 20.044-14.643.182zm-4.994-47.045c2.276 9.586 4.495 7.281.59 17.035-4.523 11.293-17.35 43.319-19.386 51.405l15.912-.223 3.29-8.947 24.085.285 3.393 8.825 15.463.091c-1.368-7.18-24.38-65.935-26.03-68.577l-17.317.106zM223.367 112.157l28.895-.336-.463-14.706-45.832.229.185 67.892 17.189-.444.091-24.597 19.165-.155.122-14.506-19.349-.641-.003-12.736zM355.689 13.195c11.586-4.672 16.542 13.77 6.382 17.267-6.284 2.163-10.968-1.235-12.342-5.6-2.034-6.461 1.48-9.86 5.96-11.667zM338.177 1.739c-7.063 2.872-5.367 8.82-5.375 17.627-.005 6.365-1.274 17.892 2.456 21.252 3.233 2.912 38.433 3.29 44.187 1.225 6.266-2.25 4.753-11.592 4.753-18.358-.001-6.77 1.522-17.78-3.121-21.01-3.036-2.113-38.999-2.323-42.9-.736zM117.361 53.757l11.499.021c1.94-7.687-3.447-27.95 5.753-29.007 9.559-1.099 6.097 21.558 6.083 28.717l12.157.236c.088-29.431 3.261-43.82-23.409-35.441L129.385 0l-11.869.057-.155 53.7zM160.82 53.517l12.265.247c-.019-5.3-.799-10.83 1.282-14.484l9.624 14.492 13.663-.088-14.206-21.866c2.059-2.478 3.666-4.801 5.995-7.29 3.346-3.578 4.388-3.946 6.623-8.593l-14.069.098c-1.878 3.9-5.83 9.322-8.672 12.557L172.986.062l-11.96-.054-.206 53.509zM323.138 66.748l70.798-.054-.129-15.362-70.676.432.007 14.984zM251.33 19.208c-2.551-2.872 1.323-3.597-11.976-2.886l.093 37.11 12.135.327c.02-6.919-.245-14.321.009-21.047.263-7.016 5.734-11.156 10.32-5.342 3.045 7.101-.195 18.051 1.455 26.175l11.007.274c1.604-5.182 1.257-26.496-.779-31.153-3.661-8.373-15.814-9.91-22.264-3.458zM56.833 24.52l3.125-1.165 3.573.77c6.518 8.03 6.672 21.193-6.14 21.193-4.455-1.208-5.74-14.815-.558-20.798zm-1.07-9.079c-23.687 5.327-18.048 43.982 8.963 38.462 23.706-4.845 18.096-44.546-8.963-38.462z" fill="#000"/><path fill-rule="evenodd" clip-rule="evenodd" d="M210.187 30.216c.248-8.632 12.012-9.954 11.637.152l-11.637-.152zm21.275 22.057l-1.355-8.117c-9.527 1.422-17.425 3.848-20.312-5.31l23.108-.336c5.927-24.377-23.056-30.873-32.231-13.875-5.903 10.934-4.659 36.301 30.79 27.638zM0 12.048l13.346.172.143 41.244 12.025.261-.007-41.486 13.35-.076.011-10.026-38.544.027L0 12.048zM285.408 9.292l-.962 6.368-4.849 1.647.023 6.178 5.063 2.06c.337 19.315-3.056 31.725 20.242 27.948l-.249-8.7-7.233-.601-.754-19.633 8.745-.027.055-8.432-8.679-.363-.168-9.049-11.234 2.604zM99.67 44.077c-4.49 3.263-9.854.887-14.013-.671l-2.422 8.59c10.346 2.912 24.117 3.801 27.734-5.873 2.03-5.43-.651-10.443-3.67-12.719-2.14-1.613-4.117-2.253-6.115-3.032-4.62-1.802-4.509-1.154-5.524-5.256 4.88-2.81 6.838-1.043 12.423.467l2.084-8.246C86.979 9.12 77.22 28.148 89.431 36.014c4.93 3.175 9.972 2.225 10.238 8.063zM338.944 49.607c6.659 0 40.452 1.452 44.896-1.41l.216-3.51c-7.96-.54-47.002-2.018-49.874-.195-4.843 3.073.669 5.115 4.762 5.115z" fill="#000"/></svg>