<svg xmlns="http://www.w3.org/2000/svg" width="144" height="144" fill="none"><path fill-rule="evenodd" clip-rule="evenodd" d="M109.801 113.24c-3.08-2.613-7.721-2.613-10.8 0-3.08 2.613-7.72 2.613-10.8 0-3.08-2.613-7.72-2.613-10.8 0-3.08 2.613-7.72 2.613-10.8 0-3.08-2.613-7.72-2.613-10.8 0-3.08 2.613-7.72 2.613-10.8 0-3.08-2.613-7.72-2.613-10.8 0-2.093 1.775-5.4.357-5.4-2.315v-77.85c0-2.673 3.307-4.09 5.4-2.315 3.08 2.613 7.72 2.613 10.8 0 3.08-2.614 7.72-2.614 10.8 0 3.08 2.613 7.72 2.613 10.8 0 3.08-2.614 7.72-2.614 10.8 0 3.08 2.613 7.72 2.613 10.8 0 3.08-2.614 7.72-2.614 10.8 0 3.079 2.613 7.72 2.613 10.8 0 2.092-1.776 5.4-.358 5.4 2.315v77.85c0 2.672-3.308 4.09-5.4 2.315zm-63-41.24a3.6 3.6 0 013.6-3.6h43.2a3.6 3.6 0 010 7.2H50.4a3.6 3.6 0 01-3.6-3.6zm3.6-20.4a3.6 3.6 0 000 7.2h43.2a3.6 3.6 0 000-7.2H50.4zm-3.6 37.2a3.6 3.6 0 013.6-3.6h43.2a3.6 3.6 0 010 7.2H50.4a3.6 3.6 0 01-3.6-3.6z" fill="#D5D5D5"/></svg>