<svg width="50" height="50" viewBox="0 0 50 50" fill="none" xmlns="http://www.w3.org/2000/svg">
<g clip-path="url(#clip0_658_60914)">
<rect width="50" height="50" rx="8" fill="#334055"/>
<rect width="50" height="50" rx="8" fill="#334055"/>
<path d="M36.8908 18.1164C36.8755 16.7177 36.4385 15.3081 35.2003 14.5245C33.9949 13.7606 32.3921 13.7759 31.4437 14.9382C31.3668 15.0323 31.2021 15.1921 31.2504 15.33C31.2987 15.4679 31.5973 15.4372 31.7225 15.4985C31.8207 15.5512 31.9011 15.6317 31.9535 15.7299C32.0058 15.828 32.0278 15.9395 32.0167 16.0501C32.0167 16.3149 32.0167 18.8671 31.9969 22.3824L22.6878 22.3277C22.5514 20.6072 22.6541 18.8763 22.993 17.1839C23.0676 16.8118 23.1532 16.4441 23.2498 16.0764C23.3552 15.6736 23.6472 15.1789 23.6165 14.7631C23.6151 14.7061 23.5959 14.651 23.5616 14.6055C23.4782 14.5026 23.3201 14.5201 23.1906 14.5529C22.3869 14.7654 21.6451 15.1644 21.0257 15.7174C20.572 16.135 20.1887 16.6228 19.8906 17.162C18.6963 19.2961 18.604 22.3167 18.604 22.3167C18.5426 24.2691 18.4657 28.2265 20.5515 32.335C20.5515 32.335 22.0159 35.2154 24.1061 35.9246C24.5189 36.0669 24.6308 35.9728 24.6682 35.9246C24.8306 35.7167 24.4815 35.3577 24.3784 35.2001C24.1893 34.9051 24.0241 34.5955 23.8844 34.2743C23.6019 33.6077 23.3921 32.9127 23.2586 32.2014C22.7919 30.0554 22.5709 27.8635 22.6 25.6678H31.9991V33.935C31.983 34.2032 32.043 34.4706 32.1723 34.7063C32.3016 34.9421 32.495 35.1368 32.7303 35.268C33.0438 35.4089 33.3797 35.494 33.7226 35.5197C34.3162 35.6127 34.9207 35.6127 35.5142 35.5197C35.8646 35.4651 36.1925 35.3134 36.4605 35.0819C36.8755 34.6989 36.882 34.1801 36.882 33.657C36.882 29.4982 36.9194 25.3504 36.915 21.1982C36.9121 20.1797 36.904 19.1524 36.8908 18.1164Z" fill="white"/>
<path d="M23.732 34.8674C19.9058 33.8122 18.4148 29.9884 17.595 26.6724C17.4178 25.9494 17.2472 25.2369 17.1519 24.4993C16.8462 22.2698 16.8595 19.8189 17.626 17.6667C17.0434 17.7921 16.7775 18.2664 16.4363 18.6508C15.1912 20.055 15.0915 21.6952 15.0317 23.325C14.9277 25.7968 15.5008 28.2522 16.6955 30.4544C17.1894 31.3287 17.7918 32.1444 18.4901 32.8845C19.1884 33.6134 19.982 34.2558 20.8518 34.7964C19.4461 34.4731 18.1785 33.7528 17.2184 32.7319C16.8242 32.2595 16.4666 31.7609 16.1483 31.24C15.5412 30.2454 14.7835 29.0064 14.3958 27.3452C14.2873 26.8793 14.2142 26.4049 14.0192 26.3861C13.74 26.359 13.421 27.3034 13.3545 27.5061C13.1797 28.0203 13.0879 28.5563 13.082 29.0962C13.0975 30.3499 14.0923 32.7884 16.4762 34.4432C16.4762 34.4432 18.5588 35.8892 22.1213 35.9999C22.705 36.0042 23.2776 35.8489 23.7696 35.5528C24.0842 35.348 24.2925 35.022 23.732 34.8674Z" fill="white"/>
</g>
<defs>
<clipPath id="clip0_658_60914">
<rect width="50" height="50" rx="8" fill="white"/>
</clipPath>
</defs>
</svg>
