<svg width="20" height="20" viewBox="0 0 20 20" fill="none" xmlns="http://www.w3.org/2000/svg">
<path d="M7.97514 14.6072L8.43945 14.0182L7.97514 14.6072ZM10.0007 5.66703L9.46028 6.18713C9.60167 6.33402 9.79677 6.41703 10.0007 6.41703C10.2045 6.41703 10.3996 6.33402 10.541 6.18713L10.0007 5.66703ZM12.0262 14.6072L12.4905 15.1962L12.0262 14.6072ZM8.43945 14.0182C7.41418 13.21 6.337 12.4524 5.47977 11.4871C4.64825 10.5508 4.08398 9.47825 4.08398 8.09134H2.58398C2.58398 9.94638 3.35953 11.3586 4.3582 12.4831C5.33116 13.5787 6.57456 14.4581 7.51083 15.1962L8.43945 14.0182ZM4.08398 8.09134C4.08398 6.75096 4.84101 5.63989 5.85415 5.17677C6.82003 4.73527 8.15229 4.82816 9.46028 6.18713L10.541 5.14693C8.84912 3.38911 6.84805 3.07318 5.23056 3.81254C3.66035 4.53029 2.58398 6.18976 2.58398 8.09134H4.08398ZM7.51083 15.1962C7.85002 15.4636 8.23005 15.7617 8.61907 15.9891C9.00784 16.2162 9.47692 16.4166 10.0007 16.4166V14.9166C9.85772 14.9166 9.66013 14.8601 9.37586 14.694C9.09183 14.528 8.79244 14.2965 8.43945 14.0182L7.51083 15.1962ZM12.4905 15.1962C13.4267 14.4581 14.6701 13.5787 15.6431 12.4831C16.6418 11.3586 17.4173 9.94638 17.4173 8.09134H15.9173C15.9173 9.47825 15.3531 10.5508 14.5215 11.4871C13.6643 12.4524 12.5871 13.21 11.5618 14.0182L12.4905 15.1962ZM17.4173 8.09134C17.4173 6.18976 16.341 4.53029 14.7707 3.81254C13.1533 3.07318 11.1522 3.38911 9.46028 5.14693L10.541 6.18713C11.849 4.82816 13.1813 4.73527 14.1471 5.17677C15.1603 5.63989 15.9173 6.75096 15.9173 8.09134H17.4173ZM11.5618 14.0182C11.2089 14.2965 10.9095 14.528 10.6254 14.694C10.3412 14.8601 10.1436 14.9166 10.0007 14.9166V16.4166C10.5244 16.4166 10.9935 16.2162 11.3822 15.9891C11.7712 15.7617 12.1513 15.4636 12.4905 15.1962L11.5618 14.0182Z" fill="#9E9EA5"/>
</svg>
