<svg xmlns="http://www.w3.org/2000/svg" width="24" height="24" viewBox="0 0 24 24" fill="none">
    <path
        d="M20 13.5983C19.9768 16.3295 19.8252 17.8352 18.8323 18.8281C17.6604 20 15.7743 20 12.0021 20C8.22987 20 6.34376 20 5.17188 18.8281C4 17.6562 4 15.7701 4 11.9979C4 8.22569 4 6.33958 5.17188 5.1677C6.1648 4.17479 7.67046 4.02316 10.4017 4"
        stroke="#F62559" stroke-width="1.5" stroke-linecap="round" />
    <path
        d="M20.0001 8H13.6001C12.2001 8 11.3355 8.66148 10.983 9.00221C10.858 9.12303 10.7955 9.18344 10.7895 9.18944C10.7835 9.19544 10.7231 9.25793 10.6023 9.38293C10.2616 9.73542 9.6001 10.6 9.6001 12V14.4M20.0001 8L16.0001 4M20.0001 8L16.0001 12"
        stroke="#F62559" stroke-width="1.5" stroke-linecap="round" stroke-linejoin="round" />
</svg>