<svg width="38" height="21" viewBox="0 0 35 21" fill="none" xmlns="http://www.w3.org/2000/svg">
<path fill-rule="evenodd" clip-rule="evenodd" d="M0.0996094 1.5998C0.0996094 0.881835 0.681639 0.299805 1.39961 0.299805H30.8663C31.5842 0.299805 32.1663 0.881835 32.1663 1.5998C32.1663 2.31777 31.5842 2.8998 30.8663 2.8998H1.39961C0.681639 2.8998 0.0996094 2.31777 0.0996094 1.5998ZM0.0996094 10.2665C0.0996094 9.5485 0.681639 8.96647 1.39961 8.96647H11.7996C12.5176 8.96647 13.0996 9.5485 13.0996 10.2665C13.0996 10.9844 12.5176 11.5665 11.7996 11.5665H1.39961C0.681639 11.5665 0.0996094 10.9844 0.0996094 10.2665ZM0.0996094 18.9331C0.0996094 18.2152 0.681639 17.6331 1.39961 17.6331H13.5329C14.2509 17.6331 14.8329 18.2152 14.8329 18.9331C14.8329 19.6511 14.2509 20.2331 13.5329 20.2331H1.39961C0.681639 20.2331 0.0996094 19.6511 0.0996094 18.9331Z" fill="#F62559"/>
<path d="M18.7329 11.5054C18.7329 14.5432 22.4827 17.7725 24.7824 19.4674C25.5696 20.0476 25.9632 20.3377 26.5329 20.3377C27.1027 20.3377 27.4963 20.0476 28.2835 19.4674C30.5832 17.7726 34.3329 14.5433 34.3329 11.5054C34.3329 6.86495 30.0428 5.13244 26.5329 8.71712C23.0231 5.13244 18.7329 6.86495 18.7329 11.5054Z" fill="#F62559"/>
</svg>
