<svg width="52" height="52" viewBox="0 0 52 52" fill="none" xmlns="http://www.w3.org/2000/svg">
<circle cx="20.8015" cy="15.5998" r="6.93333" fill="#F62559"/>
<ellipse cx="20.8013" cy="34.6682" rx="12.1333" ry="6.93333" fill="#F62559"/>
<path d="M41.5996 34.6675C41.5996 37.5394 38.0713 39.8675 33.7635 39.8675C35.0327 38.4803 35.9053 36.739 35.9053 34.67C35.9053 32.5985 35.0306 30.8556 33.7591 29.4676C38.0669 29.4676 41.5996 31.7957 41.5996 34.6675Z" fill="#F62559"/>
<path d="M36.3996 15.6014C36.3996 18.4732 34.0715 20.8014 31.1996 20.8014C30.5734 20.8014 29.973 20.6907 29.417 20.4878C30.237 19.0455 30.7053 17.3771 30.7053 15.5994C30.7053 13.823 30.2377 12.1559 29.4188 10.7143C29.9743 10.5118 30.5741 10.4014 31.1996 10.4014C34.0715 10.4014 36.3996 12.7295 36.3996 15.6014Z" fill="#F62559"/>
</svg>
