<svg width="32" height="32" viewBox="0 0 32 32" fill="none" xmlns="http://www.w3.org/2000/svg">
<rect width="32" height="32" rx="8" fill="#F7F8FA"/>
<path d="M21.6674 12H10.334" stroke="#9E9EA5" stroke-width="1.6" stroke-linecap="round"/>
<path d="M20.5564 13.6667L20.2498 18.2661C20.1318 20.036 20.0728 20.921 19.4961 21.4605C18.9195 22 18.0325 22 16.2587 22H15.7431C13.9692 22 13.0823 22 12.5056 21.4605C11.9289 20.921 11.8699 20.036 11.7519 18.2661L11.4453 13.6667" stroke="#9E9EA5" stroke-width="1.5" stroke-linecap="round"/>
<path d="M14.334 15.3333L14.6673 18.6666" stroke="#9E9EA5" stroke-width="1.5" stroke-linecap="round"/>
<path d="M17.6673 15.3333L17.334 18.6666" stroke="#9E9EA5" stroke-width="1.5" stroke-linecap="round"/>
<path d="M12.334 12C12.3712 12 12.3899 12 12.4068 11.9996C12.9557 11.9857 13.44 11.6366 13.6268 11.1202C13.6325 11.1043 13.6384 11.0867 13.6502 11.0513L13.7149 10.8571C13.7702 10.6914 13.7978 10.6085 13.8345 10.5381C13.9807 10.2574 14.2511 10.0624 14.5637 10.0125C14.6421 10 14.7294 10 14.9042 10H17.0971C17.2719 10 17.3592 10 17.4376 10.0125C17.7502 10.0624 18.0206 10.2574 18.1668 10.5381C18.2035 10.6085 18.2311 10.6914 18.2864 10.8571L18.3511 11.0513C18.3629 11.0866 18.3688 11.1043 18.3745 11.1202C18.5613 11.6366 19.0456 11.9857 19.5946 11.9996C19.6114 12 19.6301 12 19.6673 12" stroke="#9E9EA5" stroke-width="1.5"/>
</svg>
