<svg width="20" height="20" viewBox="0 0 20 20" fill="none" xmlns="http://www.w3.org/2000/svg">
<path d="M7.97416 14.6073L8.43848 14.0183L7.97416 14.6073ZM9.99967 5.66709L9.45931 6.18719C9.60069 6.33408 9.79579 6.41709 9.99967 6.41709C10.2036 6.41709 10.3987 6.33408 10.54 6.18719L9.99967 5.66709ZM12.0252 14.6073L12.4895 15.1962L12.0252 14.6073ZM8.43848 14.0183C7.4132 13.21 6.33603 12.4524 5.47879 11.4872C4.64727 10.5509 4.08301 9.47831 4.08301 8.0914H2.58301C2.58301 9.94644 3.35855 11.3587 4.35722 12.4832C5.33018 13.5788 6.57358 14.4582 7.50985 15.1962L8.43848 14.0183ZM4.08301 8.0914C4.08301 6.75102 4.84003 5.63995 5.85318 5.17683C6.81905 4.73533 8.15131 4.82823 9.45931 6.18719L10.54 5.14699C8.84815 3.38917 6.84707 3.07324 5.22958 3.8126C3.65937 4.53035 2.58301 6.18982 2.58301 8.0914H4.08301ZM7.50985 15.1962C7.84904 15.4636 8.22907 15.7618 8.61809 15.9891C9.00687 16.2163 9.47594 16.4167 9.99967 16.4167V14.9167C9.85674 14.9167 9.65915 14.8601 9.37488 14.694C9.09085 14.5281 8.79146 14.2965 8.43848 14.0183L7.50985 15.1962ZM12.4895 15.1962C13.4258 14.4582 14.6692 13.5788 15.6421 12.4832C16.6408 11.3587 17.4163 9.94644 17.4163 8.0914H15.9163C15.9163 9.47831 15.3521 10.5509 14.5206 11.4872C13.6633 12.4524 12.5861 13.21 11.5609 14.0183L12.4895 15.1962ZM17.4163 8.0914C17.4163 6.18982 16.34 4.53035 14.7698 3.8126C13.1523 3.07324 11.1512 3.38917 9.45931 5.14699L10.54 6.18719C11.848 4.82823 13.1803 4.73533 14.1462 5.17683C15.1593 5.63995 15.9163 6.75102 15.9163 8.0914H17.4163ZM11.5609 14.0183C11.2079 14.2965 10.9085 14.5281 10.6245 14.694C10.3402 14.8601 10.1426 14.9167 9.99967 14.9167V16.4167C10.5234 16.4167 10.9925 16.2163 11.3813 15.9891C11.7703 15.7618 12.1503 15.4636 12.4895 15.1962L11.5609 14.0183Z" fill="#383838"/>
</svg>
